<svg id="journey" xmlns="http://www.w3.org/2000/svg" width="19.376" height="14.96" viewBox="0 0 19.376 14.96">
  <path id="Path_623" data-name="Path 623" d="M27.256,131.139l-.437.471a6.852,6.852,0,0,1,1.935,4.306l-5.87-.022a11.576,11.576,0,0,0-.99-3.859,4.18,4.18,0,0,1,1.232-1.024,3.154,3.154,0,0,0,.787.291.3.3,0,0,0,.04.125l.21.293-.494,2.58a.322.322,0,0,0,.085.285l.573.593a.325.325,0,0,0,.463,0l.573-.593a.322.322,0,0,0,.085-.285l-.494-2.58.21-.293a.29.29,0,0,0,.038-.117,3.1,3.1,0,1,0-2.657-.7,4.87,4.87,0,0,0-.955.809,8.1,8.1,0,0,0-1.546-2.017l-.577.621A7.311,7.311,0,0,1,21,132.139c.113.225.217.459.312.7a10.734,10.734,0,0,1,.7,2.871l-1.631-.006-.643,0-8.806-.034c.328-3.027,1.76-5.451,3.652-6.435a4.259,4.259,0,0,0,1.036.386.411.411,0,0,0,.053.164l.277.386-.652,3.406a.427.427,0,0,0,.113.376l.757.785a.423.423,0,0,0,.611,0l.757-.785a.437.437,0,0,0,.113-.376L17,130.166l.277-.386a.383.383,0,0,0,.049-.152,4.088,4.088,0,1,0-3.505-.921c-2.048,1.289-3.535,4.025-3.77,7.354a.431.431,0,0,0,.113.318.425.425,0,0,0,.308.136l12.008.044h0a.485.485,0,0,0,.119-.024l6.5.024h0a.314.314,0,0,0,.233-.1.321.321,0,0,0,.087-.241A7.649,7.649,0,0,0,27.256,131.139Zm-2.7,3.351-.227-.235.227-1.186.227,1.186ZM22.122,128.3a2.434,2.434,0,1,1,3.25,2.281,2.073,2.073,0,0,1-.348.1,2.445,2.445,0,0,1-.469.047,2.507,2.507,0,0,1-.474-.047,2.451,2.451,0,0,1-1.959-2.384Zm-5.644,5.524-.3-.31.3-1.566.3,1.566Zm-3.213-8.167a3.2,3.2,0,1,1,3.213,3.213,3.286,3.286,0,0,1-.627-.063,3.234,3.234,0,0,1-2.586-3.149Z" transform="translate(-10.052 -121.6)" fill="#1e3247"/>
</svg>
