<svg xmlns="http://www.w3.org/2000/svg" width="16.794" height="12.09" viewBox="0 0 16.794 12.09">
  <g id="Email" transform="translate(-10 -147.2)">
    <path id="Path_614" data-name="Path 614" d="M10,147.2H26.794v12.09H10V147.2Zm.672.672c0,.279,0,.559,0,.836q3.277,2.871,6.567,5.729a1.626,1.626,0,0,0,2.317,0q3.282-2.863,6.567-5.727c0-.279,0-.559,0-.838Zm0,9.058q2.2-1.745,4.407-3.487-2.2-1.923-4.407-3.844Q10.673,153.265,10.67,156.93Zm11.044-3.487q2.2,1.743,4.407,3.486,0-3.665,0-7.329Q23.922,151.524,21.714,153.443Zm-10.88,4.212c-.053.048-.125.081-.161.144-.007.272,0,.547,0,.819h15.45c0-.24,0-.478,0-.718-.005-.05.014-.113-.036-.144q-2.442-1.933-4.887-3.864c-.4.348-.805.7-1.208,1.05a2.5,2.5,0,0,1-1.086.581,2.153,2.153,0,0,1-1.547-.194,4.012,4.012,0,0,1-.824-.617l-.941-.821Q13.213,155.773,10.835,157.655Z" fill="#1e3247"/>
  </g>
</svg>
