<svg xmlns="http://www.w3.org/2000/svg" width="16.282" height="16.611" viewBox="0 0 16.282 16.611">
  <g id="report2" transform="translate(-10 -0.1)">
    <path id="Path_627" data-name="Path 627" d="M25.546,15.2H11.477V.854A.739.739,0,1,0,10,.854v15.1a.746.746,0,0,0,.738.754H25.545a.755.755,0,0,0,0-1.509Z" transform="translate(0 0)" fill="#1e3247"/>
    <path id="Path_628" data-name="Path 628" d="M150.4,35.235h1.716V31.55H150.4Zm2.861,0h1.716V29.823h-1.716Zm3.2,0h1.716V28.441H156.46Zm3.089,0h1.716V26.483h-1.716Zm1.527-10.364L161.752,21l-3.847.867,1.186,1.125-3.343,3.5L154.092,25,149.3,29.941l.7.686h0l4.137-4.269,1.662,1.5,4.006-4.189,1.273,1.2Z" transform="translate(-136.985 -20.553)" fill="#1e3247"/>
  </g>
</svg>
