<svg id="Survey" xmlns="http://www.w3.org/2000/svg" width="16.759" height="17.101" viewBox="0 0 16.759 17.101">
  <path id="Path_620" data-name="Path 620" d="M12.189,6.592h8.418V7.5H12.189V6.592Zm0,2.189v.855h8.418V8.73Zm0,2.215v.855h8.418v-.906Zm9.665-2.264V4.1H18.721V.967H10.906V16.294H22.8V17.2H10V.1h9.663L19.7,3.459h3.094V8.732ZM19.677,1.307l1.874,1.7v.453H22.8V2.893L19.663.1ZM20,12.858v1.736h1.85Zm.6-.6,4.378-4.378,1.774,1.762-4.339,4.39Zm1.247,3.058H22.8v.982h-.944v-.982Z" transform="translate(-10 -0.1)" fill="#1e3247"/>
</svg>
