<svg id="Workflow" xmlns="http://www.w3.org/2000/svg" width="17.167" height="17.165" viewBox="0 0 17.167 17.165">
  <path id="Path_621" data-name="Path 621" d="M22.337,17.51h3.755a1.074,1.074,0,0,0,1.074-1.074V11.074A1.074,1.074,0,0,0,26.091,10H22.337a1.074,1.074,0,0,0-1.074,1.074v2.145H19.653a1.074,1.074,0,0,0-1.074,1.074v3.755H16.436V15.364a1.074,1.074,0,0,0-1.074-1.074H11.072A1.072,1.072,0,0,0,10,15.364V21.8a1.074,1.074,0,0,0,1.074,1.074h4.291A1.074,1.074,0,0,0,16.438,21.8V19.118h2.144v3.755a1.074,1.074,0,0,0,1.074,1.074h1.609v2.145a1.074,1.074,0,0,0,1.074,1.074h3.755a1.074,1.074,0,0,0,1.074-1.074V20.727a1.074,1.074,0,0,0-1.074-1.074H22.337a1.074,1.074,0,0,0-1.074,1.074v2.145H19.653V14.291h1.609v2.145A1.074,1.074,0,0,0,22.337,17.51Zm0-6.436h3.755v5.364H22.337Zm-6.972,6.972V21.8H11.074V15.364h4.291Zm6.972,2.681h3.755v5.364H22.337Z" transform="translate(-10 -10)" fill="#1e3247"/>
</svg>
