<svg id="Group_2388" data-name="Group 2388" xmlns="http://www.w3.org/2000/svg" width="15.846" height="15.846" viewBox="0 0 15.846 15.846">
  <path id="Path_629" data-name="Path 629" d="M10-496.329v4.671l3.724-.009,3.719-.013v-9.3l-3.719-.013L10-501Zm6.5,0v3.711H10.917v-7.421H16.5v3.711Z" transform="translate(-10 501)"/>
  <path id="Path_630" data-name="Path 630" d="M528.34-498.206v2.794H535.8L535.8-498.2l-.013-2.781-3.719-.013L528.34-501v2.794Zm6.5.022v1.855h-5.588v-3.711h5.588v1.855Z" transform="translate(-519.959 501)"/>
  <path id="Path_631" data-name="Path 631" d="M528.35-91.391v4.649h7.465v-9.3H528.35Zm6.5,0v3.732l-2.781-.009-2.785-.013-.013-3.724-.009-3.719h5.588Z" transform="translate(-519.969 102.588)"/>
  <path id="Path_632" data-name="Path 632" d="M10,136.234v2.794h7.465V133.44H10Zm6.5,0v1.877l-2.781-.009-2.785-.013-.013-1.812c0-1,0-1.838.013-1.864a19.661,19.661,0,0,1,2.794-.057H16.5v1.877Z" transform="translate(-10 -123.181)"/>
</svg>
