<svg xmlns="http://www.w3.org/2000/svg" width="16.282" height="16.581" viewBox="0 0 16.282 16.581">
  <g id="Setting" transform="translate(-10 -1)">
    <path id="Path_617" data-name="Path 617" d="M19.46,17.581H17.114a1.336,1.336,0,0,1-1.163-1.261v-.839c-.179-.078-.409-.168-.623-.269l-.535.572a1.074,1.074,0,0,1-1.505.017L11.63,14.15a1.037,1.037,0,0,1,0-1.479l.641-.623a2.959,2.959,0,0,1-.179-.419h-.821A1.367,1.367,0,0,1,10,10.455V8.109a1.338,1.338,0,0,1,1.269-1.156H12.1a6.391,6.391,0,0,1,.264-.625l-.724-.685a1.069,1.069,0,0,1-.322-.756,1.043,1.043,0,0,1,.307-.749l1.651-1.66a1.064,1.064,0,0,1,1.48,0l.751.771c.141-.066.3-.13.444-.191V1.95A1.049,1.049,0,0,1,17.113,1h2.346c.573,0,1.208.332,1.208.95V3.04c.12.06.292.123.432.186l.686-.741a1.07,1.07,0,0,1,1.5-.015l1.656,1.651a1.041,1.041,0,0,1,0,1.48l-.694.681c.108.229.2.45.286.67h.793a1.046,1.046,0,0,1,.955,1.156v2.346a1.067,1.067,0,0,1-.955,1.175h-.786a3.215,3.215,0,0,1-.191.452l.586.542a1.068,1.068,0,0,1,.326.758,1.043,1.043,0,0,1-.307.749L23.3,15.789a1.06,1.06,0,0,1-1.479,0l-.53-.563c-.219.1-.447.193-.626.271v.821A1.393,1.393,0,0,1,19.46,17.581Zm-4-3.358a7.909,7.909,0,0,0,.9.412c.088.035.169.07.243.1l.1.04a.321.321,0,0,1,.2.287v1.256a.412.412,0,0,0,.1.213.3.3,0,0,0,.238.115l2.1,0a.318.318,0,0,0,.231-.1.456.456,0,0,0,.135-.229V15.077a.308.308,0,0,1,.189-.289l.095-.04.248-.1a8.058,8.058,0,0,0,.907-.407l.1-.06a.313.313,0,0,1,.379.056l.7.734a.312.312,0,0,0,.223.1.309.309,0,0,0,.224-.093l1.356-1.362a.313.313,0,0,0-.01-.452l-.766-.706a.311.311,0,0,1-.065-.375l.056-.106a7.825,7.825,0,0,0,.417-.967l.037-.1a.308.308,0,0,1,.294-.2h.919a.315.315,0,0,0,.3-.327V8.2a.3.3,0,0,0-.3-.309h-.909A.316.316,0,0,1,23.83,7.7l-.04-.1c-.035-.081-.075-.178-.116-.281a7.754,7.754,0,0,0-.409-.9l-.06-.1a.312.312,0,0,1,.055-.379l.872-.846a.31.31,0,0,0,.095-.223.314.314,0,0,0-.091-.224L22.77,3.283a.311.311,0,0,0-.449.008l-.862.915a.313.313,0,0,1-.372.065l-.1-.055a7.72,7.72,0,0,0-.964-.407l-.1-.037a.309.309,0,0,1-.2-.294V2.251a.322.322,0,0,0-.321-.316H17.2a.3.3,0,0,0-.3.316V3.492a.321.321,0,0,1-.216.294l-.108.037a7.6,7.6,0,0,0-.954.412l-.1.055a.315.315,0,0,1-.371-.058l-.915-.939a.313.313,0,0,0-.223-.095.324.324,0,0,0-.224.091L12.431,4.657a.313.313,0,0,0,.007.449l.91.859a.313.313,0,0,1,.058.38l-.06.106a7.893,7.893,0,0,0-.4.9c-.035.09-.068.173-.1.246l-.04.1a.315.315,0,0,1-.289.194H11.269A.432.432,0,0,0,11.057,8a.311.311,0,0,0-.115.241l0,2.105a.326.326,0,0,0,.11.244.473.473,0,0,0,.218.125h1.258a.307.307,0,0,1,.3.2l.037.1a7.559,7.559,0,0,0,.4.924l.053.1a.313.313,0,0,1-.061.369l-.806.776a.319.319,0,0,0-.1.223.309.309,0,0,0,.093.224l1.364,1.357a.311.311,0,0,0,.226.091.315.315,0,0,0,.223-.1l.711-.763a.313.313,0,0,1,.384-.058Z" fill="#1e3247"/>
    <path id="Path_618" data-name="Path 618" d="M314.829,302.3a3.129,3.129,0,1,0,3.129,3.13A3.128,3.128,0,0,0,314.829,302.3Zm0,5.632a2.5,2.5,0,1,1,2.5-2.5A2.5,2.5,0,0,1,314.829,307.932Z" transform="translate(-296.687 -296.294)" fill="#1e3247"/>
  </g>
</svg>
