<svg xmlns="http://www.w3.org/2000/svg" width="17.547" height="17.552" viewBox="0 0 17.547 17.552">
  <g id="users" transform="translate(-9.99 -9.9)">
    <path id="Path_585" data-name="Path 585" d="M16.571,256.1a2,2,0,0,1,2,.974,4.334,4.334,0,0,1,.286,1.92,4.5,4.5,0,0,1-1.133,2.654l-.643.79.74.7a8.878,8.878,0,0,0,1.848,1.069,8.522,8.522,0,0,1,1.778,1.035,2.929,2.929,0,0,1,.609,1.828H11.088a2.936,2.936,0,0,1,.609-1.828,8.573,8.573,0,0,1,1.778-1.035,8.878,8.878,0,0,0,1.848-1.069l.74-.7-.643-.79a4.49,4.49,0,0,1-1.133-2.654,4.33,4.33,0,0,1,.286-1.92,2,2,0,0,1,2-.974Zm0-1.1a3.032,3.032,0,0,0-2.978,1.576,5.262,5.262,0,0,0-.4,2.416,5.553,5.553,0,0,0,1.379,3.345,11.07,11.07,0,0,1-1.585.885,8.463,8.463,0,0,0-2.063,1.241,4.051,4.051,0,0,0-.931,2.587,1.1,1.1,0,0,0,1.1,1.114H22.053a1.1,1.1,0,0,0,1.1-1.114,4.046,4.046,0,0,0-.929-2.587,8.5,8.5,0,0,0-2.063-1.241,11.07,11.07,0,0,1-1.585-.885,5.557,5.557,0,0,0,1.379-3.345,5.266,5.266,0,0,0-.4-2.416A3.03,3.03,0,0,0,16.571,255Z" transform="translate(0 -240.711)"/>
    <path id="Path_586" data-name="Path 586" d="M442.828,19.362a8.5,8.5,0,0,0-2.063-1.241,11.068,11.068,0,0,1-1.585-.885,5.56,5.56,0,0,0,1.381-3.345,5.266,5.266,0,0,0-.4-2.416,3.6,3.6,0,0,0-5.956,0,4.963,4.963,0,0,0-.4,2.263h1.1a4.005,4.005,0,0,1,.285-1.767,2.539,2.539,0,0,1,4,0,4.335,4.335,0,0,1,.286,1.92,4.5,4.5,0,0,1-1.133,2.654l-.643.79.74.7a8.962,8.962,0,0,0,1.848,1.069,8.519,8.519,0,0,1,1.778,1.035,2.932,2.932,0,0,1,.609,1.828h-4.937l1.646,1.1h3.289a1.1,1.1,0,0,0,1.1-1.114,4.038,4.038,0,0,0-.929-2.587Z" transform="translate(-416.221)"/>
  </g>
</svg>
