<svg id="widget" xmlns="http://www.w3.org/2000/svg" width="19.303" height="18.511" viewBox="0 0 19.303 18.511">
  <g id="Group_2387" data-name="Group 2387" transform="translate(0 0)">
    <path id="Path_625" data-name="Path 625" d="M565.432-480.783l-.133.117-.012,3.92c-.008,3.823-.008,3.92.068,4.044a.388.388,0,0,0,.233.169c.229.064,7.59.056,7.779-.008a.39.39,0,0,0,.221-.2c.072-.137.076-.177.028-.732a7.732,7.732,0,0,0-.668-2.636,8.275,8.275,0,0,0-4.544-4.3,8.039,8.039,0,0,0-2.523-.495C565.585-480.9,565.552-480.892,565.432-480.783Zm1.4.813a7.119,7.119,0,0,1,4.9,3.264,7.163,7.163,0,0,1,1.022,3.026l.028.33H569.46l-3.316,0-.012-3.3c0-1.815,0-3.324.012-3.348C566.16-480.055,566.269-480.051,566.828-479.971Z" transform="translate(-554.346 480.9)" fill="#1e3247"/>
    <path id="Path_626" data-name="Path 626" d="M17.536-349.755a10.016,10.016,0,0,0-2.314.547,8.412,8.412,0,0,0-3.9,3.1,10.179,10.179,0,0,0-.926,1.879,7.763,7.763,0,0,0,2.061,8.073,7.965,7.965,0,0,0,3.107,1.887,8.077,8.077,0,0,0,7.529-1.28,8.088,8.088,0,0,0,3.054-5.119c.145-1.01.125-1.352-.089-1.5-.1-.068-.294-.073-3.694-.085l-3.586-.008,0-3.554c0-1.952-.008-3.606-.028-3.678-.06-.237-.185-.294-.648-.286C17.882-349.771,17.625-349.763,17.536-349.755Zm.39,4.463.012,3.646.133.117c.125.113.149.117.523.121h6.781l-.024.318a7.121,7.121,0,0,1-.934,2.877,7.346,7.346,0,0,1-7.984,3.336,7.105,7.105,0,0,1-5.216-9.224,7.075,7.075,0,0,1,4.552-4.431,8.8,8.8,0,0,1,2.056-.4l.093,0Z" transform="translate(-10.004 352.358)" fill="#1e3247"/>
  </g>
</svg>
